{
	"patcher" : 	{
		"fileversion" : 1,
		"appversion" : 		{
			"major" : 8,
			"minor" : 5,
			"revision" : 4,
			"architecture" : "x64",
			"modernui" : 1
		}
,
		"classnamespace" : "box",
		"rect" : [ 256.0, 100.0, 1118.0, 876.0 ],
		"bglocked" : 0,
		"openinpresentation" : 1,
		"default_fontsize" : 12.0,
		"default_fontface" : 0,
		"default_fontname" : "Arial",
		"gridonopen" : 1,
		"gridsize" : [ 8.0, 8.0 ],
		"gridsnaponopen" : 2,
		"objectsnaponopen" : 0,
		"statusbarvisible" : 2,
		"toolbarvisible" : 1,
		"lefttoolbarpinned" : 0,
		"toptoolbarpinned" : 0,
		"righttoolbarpinned" : 0,
		"bottomtoolbarpinned" : 0,
		"toolbars_unpinned_last_save" : 0,
		"tallnewobj" : 0,
		"boxanimatetime" : 200,
		"enablehscroll" : 1,
		"enablevscroll" : 1,
		"devicewidth" : 0.0,
		"description" : "",
		"digest" : "",
		"tags" : "",
		"style" : "",
		"subpatcher_template" : "",
		"assistshowspatchername" : 0,
		"boxes" : [ 			{
				"box" : 				{
					"id" : "obj-26",
					"maxclass" : "newobj",
					"numinlets" : 1,
					"numoutlets" : 1,
					"outlettype" : [ "" ],
					"patching_rect" : [ 280.0, 120.0, 83.0, 22.0 ],
					"text" : "loadmess 127"
				}

			}
, 			{
				"box" : 				{
					"id" : "obj-17",
					"maxclass" : "newobj",
					"numinlets" : 1,
					"numoutlets" : 1,
					"outlettype" : [ "" ],
					"patching_rect" : [ 344.0, 152.0, 70.0, 22.0 ],
					"text" : "loadmess 4"
				}

			}
, 			{
				"box" : 				{
					"id" : "obj-81",
					"maxclass" : "live.dial",
					"numinlets" : 1,
					"numoutlets" : 2,
					"outlettype" : [ "", "float" ],
					"parameter_enable" : 1,
					"patching_rect" : [ 280.0, 152.0, 41.0, 48.0 ],
					"presentation" : 1,
					"presentation_rect" : [ 88.0, 8.0, 41.0, 48.0 ],
					"saved_attribute_attributes" : 					{
						"valueof" : 						{
							"parameter_longname" : "Velocity",
							"parameter_shortname" : "Velocity",
							"parameter_type" : 0,
							"parameter_unitstyle" : 0
						}

					}
,
					"varname" : "Velocity"
				}

			}
, 			{
				"box" : 				{
					"id" : "obj-28",
					"maxclass" : "live.menu",
					"numinlets" : 1,
					"numoutlets" : 3,
					"outlettype" : [ "", "", "float" ],
					"parameter_enable" : 1,
					"patching_rect" : [ 344.0, 184.0, 48.0, 15.0 ],
					"presentation" : 1,
					"presentation_rect" : [ 128.0, 8.0, 40.0, 15.0 ],
					"saved_attribute_attributes" : 					{
						"valueof" : 						{
							"parameter_enum" : [ "7.5", "15", "30", "60", "120", "240", "480", "960" ],
							"parameter_longname" : "Duration",
							"parameter_mmax" : 7,
							"parameter_shortname" : "Duration",
							"parameter_type" : 2,
							"parameter_unitstyle" : 9
						}

					}
,
					"varname" : "Duration"
				}

			}
, 			{
				"box" : 				{
					"angle" : 0.0,
					"bgcolor" : [ 0.137255, 0.145098, 0.160784, 0.4 ],
					"bordercolor" : [ 0.137255, 0.145098, 0.160784, 0.0 ],
					"id" : "obj-263",
					"maxclass" : "panel",
					"mode" : 0,
					"numinlets" : 1,
					"numoutlets" : 0,
					"patching_rect" : [ 408.0, 88.0, 16.0, 16.0 ],
					"presentation" : 1,
					"presentation_rect" : [ 0.0, 0.0, 400.0, 64.0 ],
					"rounded" : 10
				}

			}
, 			{
				"box" : 				{
					"id" : "obj-25",
					"maxclass" : "newobj",
					"numinlets" : 1,
					"numoutlets" : 1,
					"outlettype" : [ "" ],
					"patching_rect" : [ 88.0, 24.0, 70.0, 22.0 ],
					"text" : "loadmess 8"
				}

			}
, 			{
				"box" : 				{
					"id" : "obj-23",
					"maxclass" : "message",
					"numinlets" : 2,
					"numoutlets" : 1,
					"outlettype" : [ "" ],
					"patching_rect" : [ 600.0, 105.0, 58.0, 22.0 ],
					"text" : "set Major"
				}

			}
, 			{
				"box" : 				{
					"id" : "obj-13",
					"maxclass" : "newobj",
					"numinlets" : 1,
					"numoutlets" : 1,
					"outlettype" : [ "" ],
					"patching_rect" : [ 585.0, 195.0, 73.0, 22.0 ],
					"text" : "prepend get"
				}

			}
, 			{
				"box" : 				{
					"id" : "obj-6",
					"maxclass" : "newobj",
					"numinlets" : 0,
					"numoutlets" : 1,
					"outlettype" : [ "" ],
					"patching_rect" : [ 200.0, 176.0, 72.0, 22.0 ],
					"text" : "r #0numeric"
				}

			}
, 			{
				"box" : 				{
					"id" : "obj-4",
					"maxclass" : "newobj",
					"numinlets" : 1,
					"numoutlets" : 0,
					"patching_rect" : [ 720.0, 240.0, 74.0, 22.0 ],
					"text" : "s #0numeric"
				}

			}
, 			{
				"box" : 				{
					"id" : "obj-21",
					"maxclass" : "message",
					"numinlets" : 2,
					"numoutlets" : 1,
					"outlettype" : [ "" ],
					"patching_rect" : [ 645.0, 135.0, 35.0, 22.0 ],
					"text" : "clear"
				}

			}
, 			{
				"box" : 				{
					"id" : "obj-15",
					"maxclass" : "newobj",
					"numinlets" : 1,
					"numoutlets" : 2,
					"outlettype" : [ "", "bang" ],
					"patching_rect" : [ 540.0, 75.0, 29.5, 22.0 ],
					"text" : "t l b"
				}

			}
, 			{
				"box" : 				{
					"id" : "obj-12",
					"maxclass" : "message",
					"numinlets" : 2,
					"numoutlets" : 1,
					"outlettype" : [ "" ],
					"patching_rect" : [ 750.0, 150.0, 50.0, 22.0 ],
					"text" : "getkeys"
				}

			}
, 			{
				"box" : 				{
					"id" : "obj-16",
					"maxclass" : "newobj",
					"numinlets" : 2,
					"numoutlets" : 2,
					"outlettype" : [ "", "" ],
					"patching_rect" : [ 540.0, 105.0, 47.0, 22.0 ],
					"text" : "zl.iter 1"
				}

			}
, 			{
				"box" : 				{
					"id" : "obj-22",
					"maxclass" : "newobj",
					"numinlets" : 1,
					"numoutlets" : 1,
					"outlettype" : [ "" ],
					"patching_rect" : [ 540.0, 135.0, 96.0, 22.0 ],
					"text" : "prepend append"
				}

			}
, 			{
				"box" : 				{
					"id" : "obj-20",
					"maxclass" : "newobj",
					"numinlets" : 1,
					"numoutlets" : 0,
					"patching_rect" : [ 735.0, 210.0, 65.0, 22.0 ],
					"text" : "s #0scales"
				}

			}
, 			{
				"box" : 				{
					"id" : "obj-19",
					"maxclass" : "newobj",
					"numinlets" : 0,
					"numoutlets" : 1,
					"outlettype" : [ "" ],
					"patching_rect" : [ 540.0, 45.0, 63.0, 22.0 ],
					"text" : "r #0scales"
				}

			}
, 			{
				"box" : 				{
					"id" : "obj-18",
					"items" : [ "Lydian", ",", "Aeolian", ",", "Major", ",", "Minor" ],
					"maxclass" : "umenu",
					"numinlets" : 1,
					"numoutlets" : 3,
					"outlettype" : [ "int", "", "" ],
					"parameter_enable" : 0,
					"patching_rect" : [ 540.0, 165.0, 100.0, 22.0 ]
				}

			}
, 			{
				"box" : 				{
					"id" : "obj-5",
					"maxclass" : "newobj",
					"numinlets" : 1,
					"numoutlets" : 1,
					"outlettype" : [ "bang" ],
					"patching_rect" : [ 690.0, 45.0, 58.0, 22.0 ],
					"text" : "loadbang"
				}

			}
, 			{
				"box" : 				{
					"id" : "obj-14",
					"maxclass" : "message",
					"numinlets" : 2,
					"numoutlets" : 1,
					"outlettype" : [ "" ],
					"patching_rect" : [ 750.0, 120.0, 105.0, 22.0 ],
					"text" : "import scales.json"
				}

			}
, 			{
				"box" : 				{
					"id" : "obj-9",
					"maxclass" : "dict.view",
					"numinlets" : 1,
					"numoutlets" : 0,
					"patching_rect" : [ 555.0, 240.0, 160.0, 90.0 ]
				}

			}
, 			{
				"box" : 				{
					"id" : "obj-11",
					"maxclass" : "newobj",
					"numinlets" : 1,
					"numoutlets" : 3,
					"outlettype" : [ "bang", "bang", "bang" ],
					"patching_rect" : [ 690.0, 75.0, 42.0, 22.0 ],
					"text" : "t b b b"
				}

			}
, 			{
				"box" : 				{
					"id" : "obj-8",
					"maxclass" : "newobj",
					"numinlets" : 2,
					"numoutlets" : 4,
					"outlettype" : [ "dictionary", "", "", "" ],
					"patching_rect" : [ 705.0, 180.0, 65.0, 22.0 ],
					"saved_object_attributes" : 					{
						"embed" : 0,
						"parameter_enable" : 0,
						"parameter_mappable" : 0
					}
,
					"text" : "dict scales"
				}

			}
, 			{
				"box" : 				{
					"id" : "obj-7",
					"maxclass" : "newobj",
					"numinlets" : 5,
					"numoutlets" : 1,
					"outlettype" : [ "" ],
					"patcher" : 					{
						"fileversion" : 1,
						"appversion" : 						{
							"major" : 8,
							"minor" : 5,
							"revision" : 4,
							"architecture" : "x64",
							"modernui" : 1
						}
,
						"classnamespace" : "box",
						"rect" : [ 139.0, 547.0, 640.0, 476.0 ],
						"bglocked" : 0,
						"openinpresentation" : 0,
						"default_fontsize" : 12.0,
						"default_fontface" : 0,
						"default_fontname" : "Arial",
						"gridonopen" : 1,
						"gridsize" : [ 15.0, 15.0 ],
						"gridsnaponopen" : 2,
						"objectsnaponopen" : 0,
						"statusbarvisible" : 2,
						"toolbarvisible" : 1,
						"lefttoolbarpinned" : 0,
						"toptoolbarpinned" : 0,
						"righttoolbarpinned" : 0,
						"bottomtoolbarpinned" : 0,
						"toolbars_unpinned_last_save" : 0,
						"tallnewobj" : 0,
						"boxanimatetime" : 200,
						"enablehscroll" : 1,
						"enablevscroll" : 1,
						"devicewidth" : 0.0,
						"description" : "",
						"digest" : "",
						"tags" : "",
						"style" : "",
						"subpatcher_template" : "",
						"assistshowspatchername" : 0,
						"visible" : 1,
						"boxes" : [ 							{
								"box" : 								{
									"id" : "obj-7",
									"maxclass" : "newobj",
									"numinlets" : 3,
									"numoutlets" : 3,
									"outlettype" : [ "", "", "" ],
									"patching_rect" : [ 15.0, 75.0, 62.0, 22.0 ],
									"saved_object_attributes" : 									{
										"filename" : "notes.js",
										"parameter_enable" : 0
									}
,
									"text" : "js notes.js"
								}

							}
, 							{
								"box" : 								{
									"comment" : "int: Velocity",
									"id" : "obj-6",
									"index" : 4,
									"maxclass" : "inlet",
									"numinlets" : 0,
									"numoutlets" : 1,
									"outlettype" : [ "" ],
									"patching_rect" : [ 195.0, 15.0, 30.0, 30.0 ]
								}

							}
, 							{
								"box" : 								{
									"comment" : "float: Duration",
									"id" : "obj-5",
									"index" : 5,
									"maxclass" : "inlet",
									"numinlets" : 0,
									"numoutlets" : 1,
									"outlettype" : [ "" ],
									"patching_rect" : [ 255.0, 15.0, 30.0, 30.0 ]
								}

							}
, 							{
								"box" : 								{
									"comment" : "",
									"id" : "obj-4",
									"index" : 1,
									"maxclass" : "outlet",
									"numinlets" : 1,
									"numoutlets" : 0,
									"patching_rect" : [ 15.0, 375.0, 30.0, 30.0 ]
								}

							}
, 							{
								"box" : 								{
									"comment" : "list: Scale intervals",
									"id" : "obj-3",
									"index" : 3,
									"maxclass" : "inlet",
									"numinlets" : 0,
									"numoutlets" : 1,
									"outlettype" : [ "" ],
									"patching_rect" : [ 135.0, 15.0, 30.0, 30.0 ]
								}

							}
, 							{
								"box" : 								{
									"comment" : "int: Step count",
									"id" : "obj-2",
									"index" : 2,
									"maxclass" : "inlet",
									"numinlets" : 0,
									"numoutlets" : 1,
									"outlettype" : [ "" ],
									"patching_rect" : [ 75.0, 15.0, 30.0, 30.0 ]
								}

							}
, 							{
								"box" : 								{
									"comment" : "int: Base note",
									"id" : "obj-1",
									"index" : 1,
									"maxclass" : "inlet",
									"numinlets" : 0,
									"numoutlets" : 1,
									"outlettype" : [ "" ],
									"patching_rect" : [ 15.0, 15.0, 30.0, 30.0 ]
								}

							}
 ],
						"lines" : [ 							{
								"patchline" : 								{
									"destination" : [ "obj-7", 0 ],
									"source" : [ "obj-1", 0 ]
								}

							}
, 							{
								"patchline" : 								{
									"destination" : [ "obj-7", 1 ],
									"source" : [ "obj-2", 0 ]
								}

							}
, 							{
								"patchline" : 								{
									"destination" : [ "obj-7", 2 ],
									"source" : [ "obj-3", 0 ]
								}

							}
 ]
					}
,
					"patching_rect" : [ 104.0, 208.0, 256.0, 22.0 ],
					"saved_object_attributes" : 					{
						"description" : "",
						"digest" : "",
						"globalpatchername" : "",
						"tags" : ""
					}
,
					"text" : "p scale_maker"
				}

			}
, 			{
				"box" : 				{
					"id" : "obj-24",
					"maxclass" : "newobj",
					"numinlets" : 1,
					"numoutlets" : 1,
					"outlettype" : [ "" ],
					"patching_rect" : [ 104.0, 144.0, 77.0, 22.0 ],
					"text" : "loadmess 60"
				}

			}
, 			{
				"box" : 				{
					"id" : "obj-78",
					"maxclass" : "live.numbox",
					"numinlets" : 1,
					"numoutlets" : 2,
					"outlettype" : [ "", "float" ],
					"parameter_enable" : 1,
					"patching_rect" : [ 104.0, 184.0, 44.0, 15.0 ],
					"presentation" : 1,
					"presentation_rect" : [ 40.0, 8.0, 44.0, 15.0 ],
					"saved_attribute_attributes" : 					{
						"valueof" : 						{
							"parameter_longname" : "PItch",
							"parameter_shortname" : "Pitch",
							"parameter_type" : 0,
							"parameter_unitstyle" : 8
						}

					}
,
					"varname" : "Pitch"
				}

			}
, 			{
				"box" : 				{
					"id" : "obj-3",
					"maxclass" : "newobj",
					"numinlets" : 1,
					"numoutlets" : 1,
					"outlettype" : [ "" ],
					"patching_rect" : [ 88.0, 112.0, 85.0, 22.0 ],
					"text" : "prepend nstep"
				}

			}
, 			{
				"box" : 				{
					"id" : "obj-2",
					"maxclass" : "live.dial",
					"numinlets" : 1,
					"numoutlets" : 2,
					"outlettype" : [ "", "float" ],
					"parameter_enable" : 1,
					"patching_rect" : [ 88.0, 56.0, 41.0, 48.0 ],
					"presentation" : 1,
					"presentation_rect" : [ 0.0, 8.0, 41.0, 48.0 ],
					"saved_attribute_attributes" : 					{
						"valueof" : 						{
							"parameter_longname" : "Steps",
							"parameter_shortname" : "Steps",
							"parameter_type" : 0,
							"parameter_unitstyle" : 0
						}

					}
,
					"varname" : "Steps"
				}

			}
, 			{
				"box" : 				{
					"id" : "obj-1",
					"maxclass" : "live.step",
					"numinlets" : 1,
					"numoutlets" : 5,
					"outlettype" : [ "", "", "", "", "" ],
					"parameter_enable" : 1,
					"patching_rect" : [ 88.0, 360.0, 400.0, 170.0 ],
					"presentation" : 1,
					"presentation_rect" : [ 0.0, 72.0, 400.0, 170.0 ],
					"saved_attribute_attributes" : 					{
						"valueof" : 						{
							"parameter_invisible" : 1,
							"parameter_longname" : "live.step",
							"parameter_shortname" : "live.step",
							"parameter_type" : 3
						}

					}
,
					"varname" : "live.step"
				}

			}
 ],
		"lines" : [ 			{
				"patchline" : 				{
					"destination" : [ "obj-12", 0 ],
					"order" : 0,
					"source" : [ "obj-11", 1 ]
				}

			}
, 			{
				"patchline" : 				{
					"destination" : [ "obj-14", 0 ],
					"source" : [ "obj-11", 2 ]
				}

			}
, 			{
				"patchline" : 				{
					"destination" : [ "obj-23", 0 ],
					"source" : [ "obj-11", 0 ]
				}

			}
, 			{
				"patchline" : 				{
					"destination" : [ "obj-8", 0 ],
					"order" : 1,
					"source" : [ "obj-11", 1 ]
				}

			}
, 			{
				"patchline" : 				{
					"destination" : [ "obj-8", 0 ],
					"source" : [ "obj-12", 0 ]
				}

			}
, 			{
				"patchline" : 				{
					"destination" : [ "obj-8", 0 ],
					"source" : [ "obj-13", 0 ]
				}

			}
, 			{
				"patchline" : 				{
					"destination" : [ "obj-8", 0 ],
					"source" : [ "obj-14", 0 ]
				}

			}
, 			{
				"patchline" : 				{
					"destination" : [ "obj-16", 0 ],
					"source" : [ "obj-15", 0 ]
				}

			}
, 			{
				"patchline" : 				{
					"destination" : [ "obj-21", 0 ],
					"source" : [ "obj-15", 1 ]
				}

			}
, 			{
				"patchline" : 				{
					"destination" : [ "obj-22", 0 ],
					"source" : [ "obj-16", 0 ]
				}

			}
, 			{
				"patchline" : 				{
					"destination" : [ "obj-28", 0 ],
					"source" : [ "obj-17", 0 ]
				}

			}
, 			{
				"patchline" : 				{
					"destination" : [ "obj-13", 0 ],
					"source" : [ "obj-18", 1 ]
				}

			}
, 			{
				"patchline" : 				{
					"destination" : [ "obj-15", 0 ],
					"source" : [ "obj-19", 0 ]
				}

			}
, 			{
				"patchline" : 				{
					"destination" : [ "obj-3", 0 ],
					"order" : 1,
					"source" : [ "obj-2", 0 ]
				}

			}
, 			{
				"patchline" : 				{
					"destination" : [ "obj-7", 1 ],
					"order" : 0,
					"source" : [ "obj-2", 0 ]
				}

			}
, 			{
				"patchline" : 				{
					"destination" : [ "obj-18", 0 ],
					"source" : [ "obj-21", 0 ]
				}

			}
, 			{
				"patchline" : 				{
					"destination" : [ "obj-18", 0 ],
					"source" : [ "obj-22", 0 ]
				}

			}
, 			{
				"patchline" : 				{
					"destination" : [ "obj-18", 0 ],
					"source" : [ "obj-23", 0 ]
				}

			}
, 			{
				"patchline" : 				{
					"destination" : [ "obj-78", 0 ],
					"source" : [ "obj-24", 0 ]
				}

			}
, 			{
				"patchline" : 				{
					"destination" : [ "obj-2", 0 ],
					"source" : [ "obj-25", 0 ]
				}

			}
, 			{
				"patchline" : 				{
					"destination" : [ "obj-81", 0 ],
					"source" : [ "obj-26", 0 ]
				}

			}
, 			{
				"patchline" : 				{
					"destination" : [ "obj-7", 4 ],
					"source" : [ "obj-28", 0 ]
				}

			}
, 			{
				"patchline" : 				{
					"destination" : [ "obj-1", 0 ],
					"source" : [ "obj-3", 0 ]
				}

			}
, 			{
				"patchline" : 				{
					"destination" : [ "obj-11", 0 ],
					"source" : [ "obj-5", 0 ]
				}

			}
, 			{
				"patchline" : 				{
					"destination" : [ "obj-7", 2 ],
					"source" : [ "obj-6", 0 ]
				}

			}
, 			{
				"patchline" : 				{
					"destination" : [ "obj-7", 0 ],
					"source" : [ "obj-78", 0 ]
				}

			}
, 			{
				"patchline" : 				{
					"destination" : [ "obj-20", 0 ],
					"source" : [ "obj-8", 2 ]
				}

			}
, 			{
				"patchline" : 				{
					"destination" : [ "obj-4", 0 ],
					"source" : [ "obj-8", 1 ]
				}

			}
, 			{
				"patchline" : 				{
					"destination" : [ "obj-9", 0 ],
					"source" : [ "obj-8", 0 ]
				}

			}
, 			{
				"patchline" : 				{
					"destination" : [ "obj-7", 3 ],
					"source" : [ "obj-81", 0 ]
				}

			}
 ],
		"parameters" : 		{
			"obj-1" : [ "live.step", "live.step", 0 ],
			"obj-2" : [ "Steps", "Steps", 0 ],
			"obj-28" : [ "Duration", "Duration", 0 ],
			"obj-78" : [ "PItch", "Pitch", 0 ],
			"obj-81" : [ "Velocity", "Velocity", 0 ],
			"parameterbanks" : 			{
				"0" : 				{
					"index" : 0,
					"name" : "",
					"parameters" : [ "-", "-", "-", "-", "-", "-", "-", "-" ]
				}

			}
,
			"inherited_shortname" : 1
		}
,
		"dependency_cache" : [ 			{
				"name" : "notes.js",
				"bootpath" : "/Users/Shared/Max 8/Packages/clementine/javascript",
				"patcherrelativepath" : "../javascript",
				"type" : "TEXT",
				"implicit" : 1
			}
 ],
		"autosave" : 0
	}

}
